<svg id="SvgjsSvg1076" width="606.0124816894531" height="415" xmlns="http://www.w3.org/2000/svg" version="1.1" xmlns:xlink="http://www.w3.org/1999/xlink" xmlns:svgjs="http://svgjs.com/svgjs"><defs id="SvgjsDefs1077"><pattern id="SvgjsPattern1080" x="0" y="0" width="80" height="74" patternUnits="userSpaceOnUse"><image id="SvgjsImage1081" xlink:href="https://www.processon.com/assets/images/designer/network_azure/Computer.svg" width="80" height="74" preserveAspectRatio="none" crossOrigin="anonymous" x="0" y="0"></image></pattern><pattern id="SvgjsPattern1088" x="0" y="0" width="120" height="70.5" patternUnits="userSpaceOnUse"><image id="SvgjsImage1089" xlink:href="https://www.processon.com/assets/images/designer/network_azure/Cloud.svg" width="120" height="70.5" preserveAspectRatio="none" crossOrigin="anonymous" x="0" y="0"></image></pattern><pattern id="SvgjsPattern1096" x="0" y="0" width="51" height="75" patternUnits="userSpaceOnUse"><image id="SvgjsImage1097" xlink:href="https://www.processon.com/assets/images/designer/network_azure/Mobile.svg" width="51" height="75" preserveAspectRatio="none" crossOrigin="anonymous" x="0" y="0"></image></pattern><pattern id="SvgjsPattern1104" x="0" y="0" width="57" height="75" patternUnits="userSpaceOnUse"><image id="SvgjsImage1105" xlink:href="https://www.processon.com/assets/images/designer/network_azure/SQLAzure.svg" width="57" height="75" preserveAspectRatio="none" crossOrigin="anonymous" x="0" y="0"></image></pattern><pattern id="SvgjsPattern1112" x="0" y="0" width="60" height="77" patternUnits="userSpaceOnUse"><image id="SvgjsImage1113" xlink:href="https://www.processon.com/assets/images/designer/network_azure/SQLReporting.svg" width="60" height="77" preserveAspectRatio="none" crossOrigin="anonymous" x="0" y="0"></image></pattern><pattern id="SvgjsPattern1120" x="0" y="0" width="81.5" height="82.5" patternUnits="userSpaceOnUse"><image id="SvgjsImage1121" xlink:href="https://www.processon.com/assets/images/designer/network_azure/BatchServices.svg" width="81.5" height="82.5" preserveAspectRatio="none" crossOrigin="anonymous" x="0" y="0"></image></pattern><pattern id="SvgjsPattern1128" x="0" y="0" width="58" height="76" patternUnits="userSpaceOnUse"><image id="SvgjsImage1129" xlink:href="https://www.processon.com/assets/images/designer/network_azure/DatabaseGeneric.svg" width="58" height="76" preserveAspectRatio="none" crossOrigin="anonymous" x="0" y="0"></image></pattern></defs><g id="SvgjsG1078" transform="translate(25.012481689453125,82)"><path id="SvgjsPath1079" d="M 0 0L 80 0L 80 74L 0 74Z" stroke="none" fill="url(#SvgjsPattern1080)"></path><g id="SvgjsG1082"><text id="SvgjsText1083" font-family="微软雅黑" text-anchor="middle" font-size="13px" width="120px" fill="#323232" font-weight="400" align="middle" anchor="middle" family="微软雅黑" size="13px" weight="400" font-style="" opacity="1" y="79.05" transform="rotate(0)"><tspan id="SvgjsTspan1084" dy="16" x="40"><tspan id="SvgjsTspan1085" style="text-decoration:;">Web</tspan></tspan></text></g></g><g id="SvgjsG1086" transform="translate(221.01248168945312,156)"><path id="SvgjsPath1087" d="M 0 0L 120 0L 120 70.5L 0 70.5Z" stroke="none" fill="url(#SvgjsPattern1088)"></path><g id="SvgjsG1090"><text id="SvgjsText1091" font-family="微软雅黑" text-anchor="middle" font-size="13px" width="160px" fill="#323232" font-weight="400" align="middle" anchor="middle" family="微软雅黑" size="13px" weight="400" font-style="" opacity="1" y="75.55" transform="rotate(0)"><tspan id="SvgjsTspan1092" dy="16" x="60"><tspan id="SvgjsTspan1093" style="text-decoration:;">Fastapi Server</tspan></tspan></text></g></g><g id="SvgjsG1094" transform="translate(39.512481689453125,219.5)"><path id="SvgjsPath1095" d="M 0 0L 51 0L 51 75L 0 75Z" stroke="none" fill="url(#SvgjsPattern1096)"></path><g id="SvgjsG1098"><text id="SvgjsText1099" font-family="微软雅黑" text-anchor="middle" font-size="13px" width="91px" fill="#323232" font-weight="400" align="middle" anchor="middle" family="微软雅黑" size="13px" weight="400" font-style="" opacity="1" y="80.05" transform="rotate(0)"><tspan id="SvgjsTspan1100" dy="16" x="25.5"><tspan id="SvgjsTspan1101" style="text-decoration:;">Clinet</tspan></tspan></text></g></g><g id="SvgjsG1102" transform="translate(406.0124816894531,25.5)"><path id="SvgjsPath1103" d="M 0 0L 57 0L 57 75L 0 75Z" stroke="none" fill="url(#SvgjsPattern1104)"></path><g id="SvgjsG1106"><text id="SvgjsText1107" font-family="微软雅黑" text-anchor="middle" font-size="13px" width="97px" fill="#323232" font-weight="400" align="middle" anchor="middle" family="微软雅黑" size="13px" weight="400" font-style="" opacity="1" y="80.05" transform="rotate(0)"><tspan id="SvgjsTspan1108" dy="16" x="28.5"><tspan id="SvgjsTspan1109" style="text-decoration:;">图像元数据</tspan></tspan></text></g></g><g id="SvgjsG1110" transform="translate(463.0124816894531,152.75)"><path id="SvgjsPath1111" d="M 0 0L 60 0L 60 77L 0 77Z" stroke="none" fill="url(#SvgjsPattern1112)"></path><g id="SvgjsG1114"><text id="SvgjsText1115" font-family="微软雅黑" text-anchor="middle" font-size="13px" width="100px" fill="#323232" font-weight="400" align="middle" anchor="middle" family="微软雅黑" size="13px" weight="400" font-style="" opacity="1" y="82.05" transform="rotate(0)"><tspan id="SvgjsTspan1116" dy="16" x="30"><tspan id="SvgjsTspan1117" style="text-decoration:;">向量搜索</tspan></tspan></text></g></g><g id="SvgjsG1118" transform="translate(452.2624816894531,294.5)"><path id="SvgjsPath1119" d="M 0 0L 81.5 0L 81.5 82.5L 0 82.5Z" stroke="none" fill="url(#SvgjsPattern1120)"></path><g id="SvgjsG1122"><text id="SvgjsText1123" font-family="微软雅黑" text-anchor="middle" font-size="13px" width="122px" fill="#323232" font-weight="400" align="middle" anchor="middle" family="微软雅黑" size="13px" weight="400" font-style="" opacity="1" y="87.55" transform="rotate(0)"><tspan id="SvgjsTspan1124" dy="16" x="41"><tspan id="SvgjsTspan1125" style="text-decoration:;">图像指纹</tspan></tspan></text></g></g><g id="SvgjsG1126" transform="translate(523.0124816894531,25)"><path id="SvgjsPath1127" d="M 0 0L 58 0L 58 76L 0 76Z" stroke="none" fill="url(#SvgjsPattern1128)"></path><g id="SvgjsG1130"><text id="SvgjsText1131" font-family="微软雅黑" text-anchor="middle" font-size="13px" width="98px" fill="#323232" font-weight="400" align="middle" anchor="middle" family="微软雅黑" size="13px" weight="400" font-style="" opacity="1" y="81.05" transform="rotate(0)"><tspan id="SvgjsTspan1132" dy="16" x="29"><tspan id="SvgjsTspan1133" style="text-decoration:;">对象存储</tspan></tspan></text></g></g><g id="SvgjsG1134"><path id="SvgjsPath1135" d="M105.01248168945312 119L162.01248168945312 119L162.01248168945312 191.25L221.01248168945312 191.25" stroke="#323232" stroke-width="2" fill="none"></path></g><g id="SvgjsG1136"><path id="SvgjsPath1137" d="M90.51248168945312 257L162.76248168945312 257L162.76248168945312 191.25L221.01248168945312 191.25" stroke="#323232" stroke-width="2" fill="none"></path></g><g id="SvgjsG1138"><path id="SvgjsPath1139" d="M341.0124816894531 191.25L373.5124816894531 191.25L373.5124816894531 63L406.0124816894531 63" stroke="#323232" stroke-width="2" fill="none"></path></g><g id="SvgjsG1140"><path id="SvgjsPath1141" d="M463.0124816894531 191.25L402.0124816894531 191.25L402.0124816894531 191.25L341.0124816894531 191.25" stroke="#323232" stroke-width="2" fill="none"></path></g><g id="SvgjsG1142"><path id="SvgjsPath1143" d="M463.0124816894531 63L493.0124816894531 63L493.0124816894531 63L523.0124816894531 63" stroke="#323232" stroke-width="2" fill="none"></path></g><g id="SvgjsG1144"><path id="SvgjsPath1145" d="M452.2624816894531 335.75L372.6374816894531 335.75L372.6374816894531 191.25L341.0124816894531 191.25" stroke="#323232" stroke-width="2" fill="none"></path></g></svg>